<svg width="110" height="107" viewBox="0 0 110 107" fill="none" xmlns="http://www.w3.org/2000/svg">
<g clip-path="url(#clip0_121_2)">
<path d="M89.4907 42.8278C88.546 24.7026 72.0114 9.75 51.7083 9.75C31.4031 9.75 14.8707 24.7026 13.9259 42.8278H13.8333V46.0816C13.8333 47.8786 15.4493 49.3333 17.4399 49.3333L83.2708 55.2708C85.2635 55.2708 89.5833 47.8786 89.5833 46.0796V42.8258H89.4907V42.8278Z" fill="#FFA000"/>
<path d="M8.58762 45.8262C9.17047 43.5284 6.44347 43.1385 5.11153 41.759C4.17939 40.7992 3.48081 39.1169 3.33772 37.8542C2.86428 33.6682 9.4903 37.8561 10.2162 34.4322C10.5782 32.7202 8.35616 31.4832 7.15468 30.5669C5.78697 29.5278 4.68439 28.2493 4.43399 26.5947C4.13941 24.6531 5.04841 22.6898 7.50187 23.0361C8.94322 23.242 10.6287 25.1162 11.706 23.8555C12.2131 23.2677 11.6786 22.195 11.6555 21.5874C11.6008 20.3207 11.6765 19.1154 12.3393 18.0011C13.9406 15.3213 15.5545 17.443 17.766 16.2555C19.8554 15.1412 18.5508 12.1072 21.5598 13.1482C23.7839 13.9142 24.8318 14.5831 26.2731 11.9746C27.4872 9.77374 27.2642 7.19488 30.4457 6.60311C33.4252 6.0529 33.543 7.52145 34.3068 9.64905C34.795 11.0107 35.4305 13.7321 37.4968 13.7776C39.7587 13.8251 40.8319 10.9414 41.4863 9.55009C42.4899 7.41061 44.1922 5.65311 47.0139 5.79759C49.3727 5.92228 48.6152 8.1053 50.713 9.09092C52.7919 10.0686 53.9745 7.59665 56.0913 8.38436C58.3638 9.2354 56.3901 11.3868 56.308 12.9127C55.9756 19.2817 64.0282 10.9909 65.5285 10.5377C68.1734 9.73811 69.0382 11.0701 68.6006 12.978C67.9377 15.8617 68.4638 16.1961 71.538 15.6776C73.5517 15.3411 76.8847 14.5673 77.0698 17.2154C77.1961 18.9531 74.4691 20.3108 74.7531 21.9001C75.437 25.7555 87.1362 20.9481 89.7769 23.521C90.6901 24.4117 90.5133 27.0143 89.7601 27.9207C88.8637 28.9934 86.5638 29.4744 86.6774 31.1764C86.8016 33.0705 89.5433 32.1621 90.85 33.2506C92.7564 34.8399 91.0352 35.8057 89.5728 36.3777C88.5649 36.7735 87.4749 37.2921 87.4455 38.4974C87.4118 39.7838 88.8805 40.2588 89.6233 41.2623C90.3134 42.2024 92.3839 47.079 91.031 47.9123C89.7516 48.702 89.0425 46.6812 88.3124 46.3052C86.7995 45.5254 86.7216 46.4319 85.9641 47.4116C84.8468 48.8484 83.2855 49.8439 81.5243 50.6297C76.7479 52.7652 74.4607 49.3017 70.0524 47.936L8.58762 45.8262Z" fill="#8BC34A"/>
<path d="M85.375 39.4375C85.375 40.4873 84.9316 41.4941 84.1424 42.2365C83.3532 42.9788 82.2828 43.3958 81.1667 43.3958H76.9583C75.8422 43.3958 74.7718 42.9788 73.9826 42.2365C73.1934 41.4941 72.75 40.4873 72.75 39.4375V35.4792C72.75 34.4293 73.1934 33.4225 73.9826 32.6802C74.7718 31.9379 75.8422 31.5208 76.9583 31.5208H81.1667C82.2828 31.5208 83.3532 31.9379 84.1424 32.6802C84.9316 33.4225 85.375 34.4293 85.375 35.4792V39.4375ZM55.9166 19.6458C55.9166 20.6956 55.4733 21.7025 54.6841 22.4448C53.8948 23.1871 52.8244 23.6042 51.7083 23.6042H47.5C46.3839 23.6042 45.3135 23.1871 44.5242 22.4448C43.735 21.7025 43.2917 20.6956 43.2917 19.6458V15.6875C43.2917 14.6377 43.735 13.6309 44.5242 12.8885C45.3135 12.1462 46.3839 11.7292 47.5 11.7292H51.7083C52.8244 11.7292 53.8948 12.1462 54.6841 12.8885C55.4733 13.6309 55.9166 14.6377 55.9166 15.6875V19.6458ZM20.1458 34.3194C19.3566 35.0614 18.2864 35.4783 17.1705 35.4783C16.0546 35.4783 14.9844 35.0614 14.1952 34.3194L11.2199 31.5208C10.431 30.7785 9.98779 29.7719 9.98779 28.7223C9.98779 27.6727 10.431 26.666 11.2199 25.9237L14.1952 23.1252C14.9844 22.3831 16.0546 21.9663 17.1705 21.9663C18.2864 21.9663 19.3566 22.3831 20.1458 23.1252L23.1211 25.9237C23.91 26.666 24.3532 27.6727 24.3532 28.7223C24.3532 29.7719 23.91 30.7785 23.1211 31.5208L20.1458 34.3194Z" fill="#795548"/>
<path d="M72.3881 30.361C71.5989 31.1031 70.5287 31.52 69.4128 31.52C68.2969 31.52 67.2267 31.1031 66.4375 30.361L63.4622 27.5625C62.6732 26.8202 62.23 25.8136 62.23 24.764C62.23 23.7144 62.6732 22.7077 63.4622 21.9654L66.4375 19.1669C67.2267 18.4248 68.2969 18.0079 69.4128 18.0079C70.5287 18.0079 71.5989 18.4248 72.3881 19.1669L75.3634 21.9654C76.1523 22.7077 76.5955 23.7144 76.5955 24.764C76.5955 25.8136 76.1523 26.8202 75.3634 27.5625L72.3881 30.361ZM34.5131 24.4235C33.7239 25.1656 32.6537 25.5825 31.5378 25.5825C30.4219 25.5825 29.3517 25.1656 28.5625 24.4235L25.5872 21.625C24.7982 20.8827 24.355 19.8761 24.355 18.8265C24.355 17.7769 24.7982 16.7702 25.5872 16.0279L28.5625 13.2294C29.3517 12.4873 30.4219 12.0704 31.5378 12.0704C32.6537 12.0704 33.7239 12.4873 34.5131 13.2294L37.4884 16.0279C38.2773 16.7702 38.7205 17.7769 38.7205 18.8265C38.7205 19.8761 38.2773 20.8827 37.4884 21.625L34.5131 24.4235Z" fill="#FF3D00"/>
<path d="M89.3456 47.4254C89.1815 47.2394 89.0279 47.0454 88.8764 46.8633C83.1151 58.578 81.1667 51.3125 81.1667 51.3125L81.0699 50.7088C80.1062 32.6014 63.5864 17.6667 43.2896 17.6667C22.9865 17.6667 6.45194 32.6193 5.50717 50.7405H5.41669V53.9943C5.41669 55.7913 7.03058 57.25 9.02323 57.25H77.558C77.7495 57.25 77.9347 57.2243 78.1178 57.2005C86.4481 56.682 88.7291 50.6752 89.3456 47.4254Z" fill="#FFC107"/>
<path d="M18.0417 43.3958C18.0417 43.9213 18.2636 44.4252 18.6586 44.7967C19.0536 45.1682 19.5893 45.377 20.148 45.377C20.7066 45.377 21.2423 45.1682 21.6373 44.7967C22.0323 44.4252 22.2542 43.9213 22.2542 43.3958C22.2542 42.8704 22.0323 42.3665 21.6373 41.9949C21.2423 41.6234 20.7066 41.4147 20.148 41.4147C19.5893 41.4147 19.0536 41.6234 18.6586 41.9949C18.2636 42.3665 18.0417 42.8704 18.0417 43.3958Z" fill="#F57C00"/>
<path d="M22.25 37.4583C22.25 37.9832 22.4717 38.4866 22.8663 38.8578C23.2609 39.229 23.7961 39.4375 24.3542 39.4375C24.9122 39.4375 25.4474 39.229 25.842 38.8578C26.2366 38.4866 26.4583 37.9832 26.4583 37.4583C26.4583 36.9334 26.2366 36.43 25.842 36.0588C25.4474 35.6877 24.9122 35.4792 24.3542 35.4792C23.7961 35.4792 23.2609 35.6877 22.8663 36.0588C22.4717 36.43 22.25 36.9334 22.25 37.4583Z" fill="#F57C00"/>
<path d="M26.4583 43.3958C26.4583 43.656 26.5127 43.9137 26.6185 44.1541C26.7243 44.3945 26.8795 44.613 27.0751 44.797C27.2707 44.981 27.5029 45.127 27.7584 45.2265C28.014 45.3261 28.2879 45.3774 28.5646 45.3774C28.8412 45.3774 29.1152 45.3261 29.3707 45.2265C29.6263 45.127 29.8585 44.981 30.0541 44.797C30.2497 44.613 30.4048 44.3945 30.5107 44.1541C30.6165 43.9137 30.6709 43.656 30.6709 43.3958C30.6709 43.1356 30.6165 42.8779 30.5107 42.6375C30.4048 42.3971 30.2497 42.1787 30.0541 41.9947C29.8585 41.8107 29.6263 41.6647 29.3707 41.5651C29.1152 41.4655 28.8412 41.4142 28.5646 41.4142C28.2879 41.4142 28.014 41.4655 27.7584 41.5651C27.5029 41.6647 27.2707 41.8107 27.0751 41.9947C26.8795 42.1787 26.7243 42.3971 26.6185 42.6375C26.5127 42.8779 26.4583 43.1356 26.4583 43.3958Z" fill="#F57C00"/>
<path d="M97.2469 62.419C96.2842 44.4242 79.4357 29.5791 58.7471 29.5791C38.0563 29.5791 21.21 44.4242 20.2473 62.419H20.153V65.6493C20.153 67.4335 21.7996 68.8777 23.828 68.8777L90.9089 74.7725C92.9394 74.7725 97.3412 67.4335 97.3412 65.6474V62.417H97.2469V62.419Z" fill="#FFA000"/>
<path d="M14.8077 65.3958C15.4016 63.1146 12.6228 62.7275 11.2656 61.3579C10.3158 60.4049 9.60392 58.7347 9.45812 57.4811C8.97569 53.3253 15.7275 57.4831 16.4672 54.0837C16.836 52.3841 14.5718 51.156 13.3475 50.2462C11.9539 49.2147 10.8304 47.9453 10.5752 46.3026C10.275 44.375 11.2013 42.4258 13.7013 42.7697C15.17 42.974 16.8875 44.8348 17.9853 43.5832C18.502 42.9996 17.9574 41.9346 17.9338 41.3314C17.8781 40.0738 17.9553 38.8772 18.6307 37.7709C20.2623 35.1104 21.9069 37.2168 24.1603 36.0378C26.2895 34.9316 24.9601 31.9194 28.0262 32.9529C30.2925 33.7133 31.3603 34.3775 32.829 31.7877C34.0662 29.6027 33.8389 27.0424 37.0808 26.4549C40.1169 25.9086 40.2369 27.3666 41.0153 29.4789C41.5127 30.8308 42.1602 33.5326 44.2657 33.5778C46.5707 33.6249 47.6642 30.762 48.331 29.3807C49.3537 27.2566 51.0883 25.5117 53.9636 25.6552C56.3672 25.779 55.5953 27.9463 57.733 28.9248C59.8513 29.8955 61.0563 27.4413 63.2133 28.2233C65.529 29.0682 63.5178 31.2041 63.4342 32.7191C63.0954 39.0422 71.3009 30.8111 72.8297 30.3612C75.5249 29.5673 76.4061 30.8897 75.9601 32.7839C75.2847 35.6468 75.8207 35.9789 78.9533 35.4641C81.0052 35.1301 84.4015 34.3618 84.5902 36.9908C84.7188 38.716 81.9401 40.064 82.2295 41.6418C82.9264 45.4695 94.8477 40.6967 97.5385 43.2511C98.4691 44.1353 98.289 46.7192 97.5214 47.6191C96.608 48.6841 94.2645 49.1616 94.3802 50.8514C94.5067 52.7319 97.3005 51.83 98.632 52.9107C100.575 54.4885 98.8207 55.4474 97.3305 56.0153C96.3035 56.4083 95.1929 56.9231 95.1628 58.1197C95.1285 59.3969 96.6251 59.8685 97.382 60.8647C98.0853 61.7981 100.195 66.6396 98.8164 67.4669C97.5128 68.2509 96.7902 66.2447 96.0462 65.8714C94.5046 65.0972 94.4253 65.9971 93.6534 66.9697C92.5149 68.3963 90.9239 69.3846 89.1293 70.1647C84.2621 72.2849 81.9315 68.8463 77.4396 67.4905L14.8077 65.3958Z" fill="#8BC34A"/>
<path d="M93.053 59.0531C93.053 60.0953 92.6012 61.0949 91.797 61.8319C90.9928 62.5689 89.9021 62.9829 88.7648 62.9829H84.4766C83.3392 62.9829 82.2485 62.5689 81.4443 61.8319C80.6401 61.0949 80.1883 60.0953 80.1883 59.0531V55.1232C80.1883 54.0809 80.6401 53.0814 81.4443 52.3444C82.2485 51.6074 83.3392 51.1933 84.4766 51.1933H88.7648C89.9021 51.1933 90.9928 51.6074 91.797 52.3444C92.6012 53.0814 93.053 54.0809 93.053 55.1232V59.0531ZM63.0354 39.4038C63.0354 40.446 62.5836 41.4456 61.7794 42.1826C60.9752 42.9196 59.8844 43.3336 58.7471 43.3336H54.4589C53.3216 43.3336 52.2308 42.9196 51.4266 42.1826C50.6224 41.4456 50.1706 40.446 50.1706 39.4038V35.4739C50.1706 34.4317 50.6224 33.4321 51.4266 32.6951C52.2308 31.9581 53.3216 31.5441 54.4589 31.5441H58.7471C59.8844 31.5441 60.9752 31.9581 61.7794 32.6951C62.5836 33.4321 63.0354 34.4317 63.0354 35.4739V39.4038ZM26.5853 53.9718C25.7812 54.7085 24.6906 55.1224 23.5535 55.1224C22.4165 55.1224 21.3259 54.7085 20.5218 53.9718L17.49 51.1933C16.6861 50.4564 16.2344 49.457 16.2344 48.4149C16.2344 47.3729 16.6861 46.3735 17.49 45.6365L20.5218 42.8581C21.3259 42.1214 22.4165 41.7075 23.5535 41.7075C24.6906 41.7075 25.7812 42.1214 26.5853 42.8581L29.6171 45.6365C30.421 46.3735 30.8727 47.3729 30.8727 48.4149C30.8727 49.457 30.421 50.4564 29.6171 51.1933L26.5853 53.9718Z" fill="#795548"/>
<path d="M79.8195 50.0419C79.0153 50.7786 77.9248 51.1925 76.7877 51.1925C75.6506 51.1925 74.5601 50.7786 73.7559 50.0419L70.7241 47.2635C69.9202 46.5265 69.4686 45.5271 69.4686 44.4851C69.4686 43.443 69.9202 42.4436 70.7241 41.7067L73.7559 38.9283C74.5601 38.1915 75.6506 37.7777 76.7877 37.7777C77.9248 37.7777 79.0153 38.1915 79.8195 38.9283L82.8513 41.7067C83.6552 42.4436 84.1068 43.443 84.1068 44.4851C84.1068 45.5271 83.6552 46.5265 82.8513 47.2635L79.8195 50.0419ZM41.2253 44.1471C40.4212 44.8839 39.3306 45.2977 38.1936 45.2977C37.0565 45.2977 35.9659 44.8839 35.1618 44.1471L32.13 41.3687C31.3261 40.6318 30.8745 39.6324 30.8745 38.5903C30.8745 37.5482 31.3261 36.5488 32.13 35.8119L35.1618 33.0335C35.9659 32.2967 37.0565 31.8829 38.1936 31.8829C39.3306 31.8829 40.4212 32.2967 41.2253 33.0335L44.2571 35.8119C45.061 36.5488 45.5127 37.5482 45.5127 38.5903C45.5127 39.6324 45.061 40.6318 44.2571 41.3687L41.2253 44.1471Z" fill="#FF3D00"/>
<path d="M97.099 66.9835C96.9317 66.7988 96.7752 66.6062 96.6208 66.4255C90.7502 78.0559 88.7648 70.8426 88.7648 70.8426L88.6661 70.2433C87.6841 52.2662 70.8507 37.4388 50.1685 37.4388C29.4799 37.4388 12.6314 52.2839 11.6687 70.2747H11.5765V73.5051C11.5765 75.2892 13.221 76.7374 15.2515 76.7374H85.0876C85.2827 76.7374 85.4714 76.7119 85.6579 76.6883C94.1465 76.1735 96.4707 70.2099 97.099 66.9835Z" fill="#FFC107"/>
<path d="M24.4412 62.9829C24.4412 63.5046 24.6673 64.0049 25.0698 64.3737C25.4723 64.7426 26.0182 64.9498 26.5874 64.9498C27.1567 64.9498 27.7026 64.7426 28.1051 64.3737C28.5076 64.0049 28.7337 63.5046 28.7337 62.9829C28.7337 62.4613 28.5076 61.961 28.1051 61.5921C27.7026 61.2232 27.1567 61.016 26.5874 61.016C26.0182 61.016 25.4723 61.2232 25.0698 61.5921C24.6673 61.961 24.4412 62.4613 24.4412 62.9829Z" fill="#F57C00"/>
<path d="M28.7294 57.0881C28.7294 57.6093 28.9553 58.109 29.3574 58.4775C29.7595 58.846 30.3049 59.0531 30.8736 59.0531C31.4422 59.0531 31.9876 58.846 32.3897 58.4775C32.7918 58.109 33.0177 57.6093 33.0177 57.0881C33.0177 56.567 32.7918 56.0672 32.3897 55.6987C31.9876 55.3302 31.4422 55.1232 30.8736 55.1232C30.3049 55.1232 29.7595 55.3302 29.3574 55.6987C28.9553 56.0672 28.7294 56.567 28.7294 57.0881Z" fill="#F57C00"/>
<path d="M33.0176 62.9829C33.0176 63.2412 33.073 63.4971 33.1809 63.7357C33.2887 63.9744 33.4468 64.1913 33.6461 64.374C33.8454 64.5567 34.082 64.7016 34.3425 64.8005C34.6029 64.8993 34.882 64.9502 35.1639 64.9502C35.4458 64.9502 35.7249 64.8993 35.9854 64.8005C36.2458 64.7016 36.4824 64.5567 36.6817 64.374C36.881 64.1913 37.0391 63.9744 37.1469 63.7357C37.2548 63.4971 37.3102 63.2412 37.3102 62.9829C37.3102 62.7246 37.2548 62.4688 37.1469 62.2301C37.0391 61.9914 36.881 61.7745 36.6817 61.5918C36.4824 61.4091 36.2458 61.2642 35.9854 61.1654C35.7249 61.0665 35.4458 61.0156 35.1639 61.0156C34.882 61.0156 34.6029 61.0665 34.3425 61.1654C34.082 61.2642 33.8454 61.4091 33.6461 61.5918C33.4468 61.7745 33.2887 61.9914 33.1809 62.2301C33.073 62.4688 33.0176 62.7246 33.0176 62.9829Z" fill="#F57C00"/>
<path d="M107.247 82.419C106.284 64.4242 89.4357 49.5791 68.7471 49.5791C48.0563 49.5791 31.21 64.4242 30.2473 82.419H30.153V85.6493C30.153 87.4335 31.7996 88.8777 33.828 88.8777L100.909 94.7725C102.939 94.7725 107.341 87.4335 107.341 85.6474V82.417H107.247V82.419Z" fill="#FFA000"/>
<path d="M24.8077 85.3958C25.4016 83.1146 22.6228 82.7275 21.2656 81.3579C20.3158 80.4049 19.6039 78.7347 19.4581 77.4811C18.9757 73.3253 25.7275 77.4831 26.4672 74.0837C26.836 72.3841 24.5718 71.156 23.3475 70.2462C21.9539 69.2147 20.8304 67.9453 20.5752 66.3026C20.275 64.375 21.2013 62.4258 23.7013 62.7697C25.17 62.974 26.8875 64.8348 27.9853 63.5832C28.502 62.9996 27.9574 61.9346 27.9338 61.3314C27.8781 60.0738 27.9553 58.8772 28.6307 57.7709C30.2623 55.1104 31.9069 57.2168 34.1603 56.0378C36.2895 54.9316 34.9601 51.9194 38.0262 52.9529C40.2925 53.7133 41.3603 54.3775 42.829 51.7877C44.0662 49.6027 43.8389 47.0424 47.0808 46.4549C50.1169 45.9086 50.2369 47.3666 51.0153 49.4789C51.5127 50.8308 52.1602 53.5326 54.2657 53.5778C56.5707 53.6249 57.6642 50.762 58.331 49.3807C59.3537 47.2566 61.0883 45.5117 63.9636 45.6552C66.3672 45.779 65.5953 47.9463 67.733 48.9248C69.8513 49.8955 71.0563 47.4413 73.2133 48.2233C75.529 49.0682 73.5178 51.2041 73.4342 52.7191C73.0954 59.0422 81.3009 50.8111 82.8297 50.3612C85.5249 49.5673 86.4061 50.8897 85.9601 52.7839C85.2847 55.6468 85.8207 55.9789 88.9533 55.4641C91.0052 55.1301 94.4015 54.3618 94.5902 56.9908C94.7188 58.716 91.9401 60.064 92.2295 61.6418C92.9264 65.4695 104.848 60.6967 107.539 63.2511C108.469 64.1353 108.289 66.7192 107.521 67.6191C106.608 68.6841 104.264 69.1616 104.38 70.8514C104.507 72.7319 107.301 71.83 108.632 72.9107C110.575 74.4885 108.821 75.4474 107.331 76.0153C106.304 76.4083 105.193 76.9231 105.163 78.1197C105.129 79.3969 106.625 79.8685 107.382 80.8647C108.085 81.7981 110.195 86.6396 108.816 87.4669C107.513 88.2509 106.79 86.2447 106.046 85.8714C104.505 85.0972 104.425 85.9971 103.653 86.9697C102.515 88.3963 100.924 89.3846 99.1293 90.1647C94.2621 92.2849 91.9315 88.8463 87.4396 87.4905L24.8077 85.3958Z" fill="#8BC34A"/>
<path d="M103.053 79.0531C103.053 80.0953 102.601 81.0949 101.797 81.8319C100.993 82.5689 99.9021 82.9829 98.7648 82.9829H94.4766C93.3392 82.9829 92.2485 82.5689 91.4443 81.8319C90.6401 81.0949 90.1883 80.0953 90.1883 79.0531V75.1232C90.1883 74.0809 90.6401 73.0814 91.4443 72.3444C92.2485 71.6074 93.3392 71.1933 94.4766 71.1933H98.7648C99.9021 71.1933 100.993 71.6074 101.797 72.3444C102.601 73.0814 103.053 74.0809 103.053 75.1232V79.0531ZM73.0354 59.4038C73.0354 60.446 72.5836 61.4456 71.7794 62.1826C70.9752 62.9196 69.8844 63.3336 68.7471 63.3336H64.4589C63.3216 63.3336 62.2308 62.9196 61.4266 62.1826C60.6224 61.4456 60.1706 60.446 60.1706 59.4038V55.4739C60.1706 54.4317 60.6224 53.4321 61.4266 52.6951C62.2308 51.9581 63.3216 51.5441 64.4589 51.5441H68.7471C69.8844 51.5441 70.9752 51.9581 71.7794 52.6951C72.5836 53.4321 73.0354 54.4317 73.0354 55.4739V59.4038ZM36.5853 73.9718C35.7812 74.7085 34.6906 75.1224 33.5535 75.1224C32.4165 75.1224 31.3259 74.7085 30.5218 73.9718L27.49 71.1933C26.6861 70.4564 26.2344 69.457 26.2344 68.4149C26.2344 67.3729 26.6861 66.3735 27.49 65.6365L30.5218 62.8581C31.3259 62.1214 32.4165 61.7075 33.5535 61.7075C34.6906 61.7075 35.7812 62.1214 36.5853 62.8581L39.6171 65.6365C40.421 66.3735 40.8727 67.3729 40.8727 68.4149C40.8727 69.457 40.421 70.4564 39.6171 71.1933L36.5853 73.9718Z" fill="#795548"/>
<path d="M89.8195 70.0419C89.0153 70.7786 87.9248 71.1925 86.7877 71.1925C85.6506 71.1925 84.5601 70.7786 83.7559 70.0419L80.7241 67.2635C79.9202 66.5265 79.4686 65.5271 79.4686 64.4851C79.4686 63.443 79.9202 62.4436 80.7241 61.7067L83.7559 58.9283C84.5601 58.1915 85.6506 57.7777 86.7877 57.7777C87.9248 57.7777 89.0153 58.1915 89.8195 58.9283L92.8513 61.7067C93.6552 62.4436 94.1068 63.443 94.1068 64.4851C94.1068 65.5271 93.6552 66.5265 92.8513 67.2635L89.8195 70.0419ZM51.2253 64.1471C50.4212 64.8839 49.3306 65.2977 48.1936 65.2977C47.0565 65.2977 45.9659 64.8839 45.1618 64.1471L42.13 61.3687C41.3261 60.6318 40.8745 59.6324 40.8745 58.5903C40.8745 57.5482 41.3261 56.5488 42.13 55.8119L45.1618 53.0335C45.9659 52.2967 47.0565 51.8829 48.1936 51.8829C49.3306 51.8829 50.4212 52.2967 51.2253 53.0335L54.2571 55.8119C55.061 56.5488 55.5127 57.5482 55.5127 58.5903C55.5127 59.6324 55.061 60.6318 54.2571 61.3687L51.2253 64.1471Z" fill="#FF3D00"/>
<path d="M107.099 86.9835C106.932 86.7988 106.775 86.6062 106.621 86.4255C100.75 98.0559 98.7648 90.8426 98.7648 90.8426L98.6661 90.2433C97.6841 72.2662 80.8507 57.4388 60.1685 57.4388C39.4799 57.4388 22.6314 72.2839 21.6687 90.2747H21.5765V93.5051C21.5765 95.2892 23.221 96.7374 25.2515 96.7374H95.0876C95.2827 96.7374 95.4714 96.7119 95.6579 96.6883C104.147 96.1735 106.471 90.2099 107.099 86.9835Z" fill="#FFC107"/>
<path d="M34.4412 82.9829C34.4412 83.5046 34.6673 84.0049 35.0698 84.3737C35.4723 84.7426 36.0182 84.9498 36.5874 84.9498C37.1567 84.9498 37.7026 84.7426 38.1051 84.3737C38.5076 84.0049 38.7337 83.5046 38.7337 82.9829C38.7337 82.4613 38.5076 81.961 38.1051 81.5921C37.7026 81.2232 37.1567 81.016 36.5874 81.016C36.0182 81.016 35.4723 81.2232 35.0698 81.5921C34.6673 81.961 34.4412 82.4613 34.4412 82.9829Z" fill="#F57C00"/>
<path d="M38.7294 77.0881C38.7294 77.6093 38.9553 78.109 39.3574 78.4775C39.7595 78.846 40.3049 79.0531 40.8736 79.0531C41.4422 79.0531 41.9876 78.846 42.3897 78.4775C42.7918 78.109 43.0177 77.6093 43.0177 77.0881C43.0177 76.567 42.7918 76.0672 42.3897 75.6987C41.9876 75.3302 41.4422 75.1232 40.8736 75.1232C40.3049 75.1232 39.7595 75.3302 39.3574 75.6987C38.9553 76.0672 38.7294 76.567 38.7294 77.0881Z" fill="#F57C00"/>
<path d="M43.0176 82.9829C43.0176 83.2412 43.073 83.4971 43.1809 83.7357C43.2887 83.9744 43.4468 84.1913 43.6461 84.374C43.8454 84.5567 44.082 84.7016 44.3425 84.8005C44.6029 84.8993 44.882 84.9502 45.1639 84.9502C45.4458 84.9502 45.7249 84.8993 45.9854 84.8005C46.2458 84.7016 46.4824 84.5567 46.6817 84.374C46.881 84.1913 47.0391 83.9744 47.1469 83.7357C47.2548 83.4971 47.3102 83.2412 47.3102 82.9829C47.3102 82.7246 47.2548 82.4688 47.1469 82.2301C47.0391 81.9914 46.881 81.7745 46.6817 81.5918C46.4824 81.4091 46.2458 81.2642 45.9854 81.1654C45.7249 81.0665 45.4458 81.0156 45.1639 81.0156C44.882 81.0156 44.6029 81.0665 44.3425 81.1654C44.082 81.2642 43.8454 81.4091 43.6461 81.5918C43.4468 81.7745 43.2887 81.9914 43.1809 82.2301C43.073 82.4688 43.0176 82.7246 43.0176 82.9829Z" fill="#F57C00"/>
</g>
<defs>
<clipPath id="clip0_121_2">
<rect width="110" height="107" fill="white"/>
</clipPath>
</defs>
</svg>
